<svg class="img-fluid" id="outputsvg" xmlns="http://www.w3.org/2000/svg" width="270" height="270"
    viewBox="0 0 2700 2700">
    <g id="l13k5ngMwwMLdx6TDFIlsOB" fill="rgb(62,163,234)" style="transform: none;">
        <g style="transform: none;">
            <path id="pDf9s5ewQ"
                d="M755 2563 c-40 -59 -144 -221 -188 -293 -22 -36 -76 -105 -121 -155 -45 -49 -108 -120 -140 -157 l-58 -68 378 0 378 0 56 58 c30 31 129 140 219 242 153 172 196 220 261 290 56 60 90 101 90 109 0 4 -191 9 -425 10 l-424 2 -26 -38z">
            </path>
            <path id="psjJEopmz"
                d="M1839 2512 c-14 -15 -115 -128 -224 -252 -110 -124 -222 -250 -251 -280 -66 -71 -288 -319 -338 -379 -22 -25 -65 -73 -96 -106 -30 -33 -80 -89 -110 -125 -30 -35 -65 -74 -77 -87 -182 -190 -222 -264 -231 -423 -7 -153 13 -212 136 -403 20 -32 60 -95 89 -140 29 -45 63 -95 75 -111 l24 -28 171 188 c339 374 397 439 468 522 17 19 44 49 61 66 17 17 64 69 105 116 41 46 91 102 113 125 21 22 105 115 186 206 81 92 157 176 169 188 12 12 35 50 51 84 82 179 59 347 -73 540 -26 37 -47 70 -47 73 0 3 -10 19 -22 34 -13 16 -50 72 -83 124 -33 53 -62 96 -65 95 -3 0 -17 -12 -31 -27z">
            </path>
            <path id="p1GJD5fI5J"
                d="M1585 774 c-16 -17 -70 -76 -120 -130 -49 -54 -122 -133 -160 -174 -39 -41 -112 -121 -163 -177 l-93 -102 53 -28 53 -28 355 1 c754 2 790 3 790 17 0 7 -52 96 -116 198 -64 101 -118 187 -121 192 -2 4 10 22 28 40 53 52 188 211 184 216 -3 2 -152 4 -332 5 l-328 1 -30 -31z">
            </path>
        </g>
    </g>
</svg>